<svg viewBox="0 0 32 32" fill="none" xmlns="http://www.w3.org/2000/svg" class="jsx-58dfdf844907ebe9 ">
    <title class="jsx-58dfdf844907ebe9">USD icon</title>
    <path d="M15.1111 26V7H16.8889V26H15.1111ZM21.0949 12.7C20.9648 11.9479 20.4372 11.3641 19.5122 10.9484C18.5872 10.5328 17.4526 10.325 16.1084 10.325C15.1256 10.325 14.2656 10.4339 13.5285 10.6516C12.7986 10.8693 12.2276 11.1686 11.8157 11.5496C11.411 11.9306 11.2087 12.3635 11.2087 12.8484C11.2087 13.2542 11.3496 13.603 11.6314 13.8949C11.9205 14.1819 12.2891 14.4219 12.7371 14.6148C13.1852 14.8029 13.6549 14.9587 14.1463 15.0824C14.6378 15.2012 15.0894 15.2977 15.5014 15.3719L17.7561 15.7875C18.3342 15.8914 18.9774 16.0349 19.6856 16.218C20.4011 16.401 21.084 16.6509 21.7344 16.9676C22.3921 17.2793 22.9341 17.6801 23.3604 18.1699C23.7868 18.6598 24 19.2609 24 19.9734C24 20.7948 23.6856 21.537 23.0569 22.2C22.4354 22.863 21.5248 23.39 20.3252 23.7809C19.1328 24.1717 17.6838 24.3672 15.9783 24.3672C14.3884 24.3672 13.0117 24.1915 11.8482 23.8402C10.692 23.4889 9.78139 22.9991 9.11653 22.3707C8.4589 21.7423 8.08672 21.0125 8 20.1813H10.7751C10.8473 20.7552 11.1292 21.2302 11.6206 21.6062C12.1192 21.9773 12.748 22.2544 13.5068 22.4375C14.2728 22.6156 15.0967 22.7047 15.9783 22.7047C17.0045 22.7047 17.9259 22.5909 18.7425 22.3633C19.5592 22.1307 20.206 21.8091 20.6829 21.3984C21.1599 20.9828 21.3984 20.4979 21.3984 19.9438C21.3984 19.4391 21.1924 19.0284 20.7805 18.7117C20.3686 18.3951 19.8266 18.1378 19.1545 17.9398C18.4824 17.7419 17.7561 17.5688 16.9756 17.4203L14.2439 16.8859C12.5095 16.5445 11.1364 16.0572 10.1247 15.4238C9.11292 14.7905 8.60705 13.9617 8.60705 12.9375C8.60705 12.0865 8.94309 11.3443 9.61518 10.7109C10.2945 10.0727 11.2051 9.57787 12.3469 9.22656C13.4959 8.87031 14.7787 8.69219 16.1951 8.69219C17.626 8.69219 18.8979 8.86784 20.0108 9.21914C21.1238 9.56549 22.0054 10.0405 22.6558 10.6441C23.3135 11.2478 23.6603 11.9331 23.6965 12.7H21.0949Z" fill="hsl(218, 23%, 23%)"></path>
</svg>